<svg xmlns="http://www.w3.org/2000/svg" version="1.1" xmlns:xlink="http://www.w3.org/1999/xlink" xmlns:svgjs="http://svgjs.com/svgjs" width="1440" height="560" preserveAspectRatio="none" viewBox="0 0 1440 560"><g mask="url(&quot;#SvgjsMask10573&quot;)" fill="none"><rect width="1440" height="560" x="0" y="0" fill="rgba(239, 240, 255, 1)"></rect><use xlink:href="#SvgjsG10582" transform="translate(0, 0)" fill="rgba(222, 224, 251, 1)"></use><use xlink:href="#SvgjsG10582" transform="translate(0, 432)" fill="rgba(222, 224, 251, 1)"></use><use xlink:href="#SvgjsG10582" transform="translate(432, 0)" fill="rgba(222, 224, 251, 1)"></use><use xlink:href="#SvgjsG10582" transform="translate(432, 432)" fill="rgba(222, 224, 251, 1)"></use><use xlink:href="#SvgjsG10582" transform="translate(864, 0)" fill="rgba(222, 224, 251, 1)"></use><use xlink:href="#SvgjsG10582" transform="translate(864, 432)" fill="rgba(222, 224, 251, 1)"></use><use xlink:href="#SvgjsG10582" transform="translate(1296, 0)" fill="rgba(222, 224, 251, 1)"></use><use xlink:href="#SvgjsG10582" transform="translate(1296, 432)" fill="rgba(222, 224, 251, 1)"></use></g><defs><mask id="SvgjsMask10573"><rect width="1440" height="560" fill="#ffffff"></rect></mask><g id="SvgjsG10581"><path d="M6.498 9.304L12.139 3.663l1.565 1.566-5.641 5.641z"></path><path d="M6.8 0.457h2.541v8.028H6.8z"></path><path d="M8.072 10.876L2.429 5.238l1.563-1.566L9.636 9.313zM1.2 13.277h13.733v2.266H1.2z"></path><path d="M0.733 9.143h2.267v6.4h-2.267z m12.267 0h2.267v6.4h-2.267z"></path></g><g id="SvgjsG10578"><path d="M7.713 15.485C3.459 15.485 0 12.025 0 7.768 0 3.513 3.459 0.051 7.713 0.051S15.432 3.513 15.432 7.768c0 4.257-3.465 7.716-7.719 7.717z m0-1.91c3.201 0 5.81-2.604 5.81-5.809 0-3.199-2.61-5.807-5.81-5.807-3.202 0-5.804 2.609-5.804 5.807-0.001 3.206 2.602 5.809 5.804 5.809z"></path><path d="M7.753 8.787a0.574 0.574 0 0 1-0.554-0.042 0.578 0.578 0 0 1-0.259-0.399L6.931 3.862a0.58 0.58 0 0 1 1.162 0v3.478l2.975-1.4a0.578 0.578 0 0 1 0.773 0.275c0.138 0.292 0.011 0.637-0.276 0.774l-3.81 1.798z"></path></g><g id="SvgjsG10575"><path d="M2.524 8.637H0.014V7.308h2.51v1.329zM3.656 4.576L1.884 2.804l0.935-0.935 1.772 1.772-0.935 0.935z m0 6.817l0.935 0.935-1.772 1.773-0.934-0.936 1.771-1.772z m4.997-8.884h-1.33V-0.002h1.33v2.511z m-1.33 10.952h1.33v2.51h-1.33v-2.509zM12.344 4.576l-0.96-0.935 1.796-1.772 0.935 0.935-1.772 1.772z m0 6.792l1.771 1.797-0.935 0.936-1.771-1.774 0.936-0.96z m3.643-4.06v1.329h-2.51V7.308h2.509z"></path><path d="M3.702 7.984a4.184 4.184 0 1 0 8.368 0 4.184 4.184 0 1 0-8.368 0"></path></g><g id="SvgjsG10574"><path d="M15.233 9.431c0.295 0 0.569-0.239 0.61-0.532 0 0 0.056-0.411 0.056-0.899s-0.056-0.899-0.056-0.899c-0.041-0.292-0.315-0.531-0.61-0.53h-1.524c-0.295 0-0.602-0.188-0.681-0.418s-0.188-0.967 0.021-1.176l1.078-1.077c0.209-0.209 0.225-0.565 0.036-0.792l-1.268-1.268c-0.227-0.189-0.583-0.173-0.792 0.036l-1.078 1.077c-0.208 0.209-0.556 0.293-0.772 0.187s-0.822-0.552-0.821-0.847V0.767c0-0.295-0.239-0.569-0.531-0.61 0 0-0.411-0.057-0.9-0.056s-0.899 0.057-0.899 0.056c-0.293 0.04-0.532 0.315-0.532 0.61v1.524c0 0.295-0.188 0.601-0.418 0.681s-0.967 0.188-1.176-0.021l-1.078-1.078C3.689 1.665 3.333 1.649 3.107 1.837l-1.268 1.268c-0.189 0.227-0.173 0.583 0.036 0.792l1.077 1.078c0.209 0.209 0.293 0.556 0.187 0.772s-0.552 0.822-0.847 0.822H0.767c-0.295 0-0.569 0.239-0.61 0.531 0 0-0.057 0.411-0.056 0.899s0.057 0.899 0.056 0.9c0.04 0.293 0.315 0.532 0.61 0.532h1.525c0.295 0 0.601 0.188 0.681 0.417 0.079 0.23 0.188 0.967-0.02 1.176l-1.078 1.077C1.667 12.311 1.651 12.667 1.84 12.893l1.267 1.268c0.227 0.189 0.583 0.173 0.792-0.036l1.077-1.077c0.209-0.208 0.556-0.292 0.772-0.187s0.821 0.553 0.822 0.848v1.524c0 0.295 0.239 0.569 0.532 0.61 0 0 0.411 0.057 0.899 0.057s0.899-0.056 0.899-0.057c0.293-0.04 0.531-0.315 0.532-0.609v-1.524c0-0.295 0.188-0.602 0.418-0.681 0.23-0.079 0.967-0.188 1.176 0.021l1.077 1.077c0.209 0.209 0.565 0.225 0.792 0.036l1.268-1.267c0.189-0.227 0.173-0.583-0.036-0.792l-1.078-1.077c-0.209-0.209-0.293-0.557-0.186-0.773 0.106-0.216 0.552-0.822 0.847-0.822h1.525zM8 10.892c-1.597 0-2.891-1.294-2.891-2.892 0-1.596 1.295-2.891 2.891-2.891S10.892 6.404 10.892 8 9.597 10.892 8 10.892z"></path></g><g id="SvgjsG10577"><path d="M7.45 12.652S6.4 11.121 3.725 11.121C1.274 11.121 0 11.833 0 11.833V1.937s1.274-0.712 3.725-0.729C6.4 1.19 7.45 2.756 7.45 2.756V12.652z m1.087 0s1.05-1.531 3.725-1.531c2.451 0 3.725 0.712 3.725 0.713V1.937s-1.274-0.712-3.725-0.729c-2.675-0.017-3.725 1.548-3.725 1.548v9.896z"></path><path d="M8.012 15.733S6.4 13.411 3.725 13.411c-2.451 0-3.725 0.712-3.725 0.712v-1.186s1.274-0.712 3.725-0.729c2.675-0.018 4.287 2.34 4.287 2.34V15.733z m0 0s1.612-2.323 4.287-2.323c2.451 0 3.725 0.712 3.725 0.712v-1.185s-1.274-0.712-3.725-0.729c-2.675-0.019-4.287 2.339-4.287 2.339v1.185z"></path></g><g id="SvgjsG10579"><path d="M14.4 14.633H1.6L0 6.545h16zM2.185 1.505h5.221l1.003 3.928H1.183z"></path><path d="M14.816 5.433H1.184l1.383-2.146h11.716z"></path></g><g id="SvgjsG10580"><path d="M10.638 8.247l-4.284-0.705 0.615-0.438 1.029 0.143 1.027-0.143 1.613 1.143zM7.998 0.15c0.859 0 1.555 0.696 1.555 1.556 0 0.859-0.548 1.556-1.555 1.555-0.859 0-1.556-0.696-1.557-1.555 0-0.86 0.697-1.556 1.557-1.556z m0.387 11.242v3.759A0.849 0.849 0 0 0 9.234 16a0.849 0.849 0 0 0 0.849-0.849V11.392c0-0.468-0.38-0.849-0.849-0.849a0.85 0.85 0 0 0-0.849 0.849z m5.202 2.146a0.493 0.493 0 0 1-0.492 0.494h-2.604v-2.463h1.126V9.11a0.493 0.493 0 0 1 0.492-0.492h0.986a0.493 0.493 0 0 1 0.492 0.492v4.429z m-5.609 0.494H2.923a0.493 0.493 0 0 1-0.493-0.494V9.11c0-0.271 0.22-0.492 0.493-0.492h0.985a0.493 0.493 0 0 1 0.493 0.492v2.459h3.577v2.462zM5.316 8.72a0.85 0.85 0 0 0 0.7 0.976l3.709 0.611a0.85 0.85 0 0 0 0.976-0.7c0.076-0.463-0.237-0.9-0.7-0.975L6.292 8.02a0.85 0.85 0 0 0-0.976 0.7z"></path><path d="M7.998 4.499l2.016-0.329v1.418l0.996 0.748c0.096 0.096 0.057 0.207 0.034 0.238-0.057 0.075-0.163 0.09-0.237 0.034l-1.257-0.949a0.577 0.577 0 0 0-0.665 0.942l2.146 1.508c0.1 0.071 0.242 0.118 0.383 0.118 0.12 0 0.263-0.05 0.368-0.124 0.225-0.16 0.308-0.444 0.232-0.706L11.216 5.041c-0.213-0.585-0.75-1.274-1.556-1.275H6.334c-0.806 0-1.343 0.689-1.556 1.275l-0.797 2.356c-0.077 0.262 0.007 0.545 0.232 0.705 0.105 0.075 0.247 0.125 0.367 0.125 0.142 0 0.284-0.047 0.384-0.118l2.147-1.508a0.577 0.577 0 0 0-0.666-0.942l-1.257 0.949a0.17 0.17 0 0 1-0.237-0.034c-0.023-0.031-0.062-0.141 0.034-0.237 0 0 0.675-0.507 0.996-0.749v-1.418l2.017 0.329z"></path></g><g id="SvgjsG10576"><path d="M15.828 7.44l-1.288-1.3H6.996C6.352 5.004 5.141 4.237 3.752 4.24 1.681 4.236 0.004 5.93 0 8.016c0.005 2.091 1.681 3.785 3.751 3.788 1.386-0.002 2.594-0.767 3.24-1.9h1.517l1.202-1.202 0.92 0.92 0.882-0.883 0.908 0.906 0.919-0.919 0.919 0.919 1.57-1.568c0.226-0.236 0.233-0.402 0-0.637zM2.109 9.009c-0.553-0.005-0.998-0.455-0.993-1.006-0.005-0.558 0.44-1.008 0.993-1.005 0.544-0.003 0.989 0.447 0.993 1.005-0.004 0.55-0.449 1-0.993 1.006z"></path></g><g id="SvgjsG10582"><use xlink:href="#SvgjsG10574" transform="translate(0, 0) scale(1.8)" fill="rgba(222, 224, 251, 1)"></use><use xlink:href="#SvgjsG10575" transform="translate(0, 43.2) scale(1.8)" fill="rgba(222, 224, 251, 1)"></use><use xlink:href="#SvgjsG10576" transform="translate(0, 86.4) scale(1.8)" fill="rgba(222, 224, 251, 1)"></use><use xlink:href="#SvgjsG10577" transform="translate(0, 129.60000000000002) scale(1.8)" fill="rgba(222, 224, 251, 1)"></use><use xlink:href="#SvgjsG10577" transform="translate(0, 172.8) scale(1.8)" fill="rgba(222, 224, 251, 1)"></use><use xlink:href="#SvgjsG10578" transform="translate(0, 216) scale(1.8)" fill="rgba(222, 224, 251, 1)"></use><use xlink:href="#SvgjsG10574" transform="translate(0, 259.20000000000005) scale(1.8)" fill="rgba(222, 224, 251, 1)"></use><use xlink:href="#SvgjsG10575" transform="translate(0, 302.40000000000003) scale(1.8)" fill="rgba(222, 224, 251, 1)"></use><use xlink:href="#SvgjsG10575" transform="translate(0, 345.6) scale(1.8)" fill="rgba(222, 224, 251, 1)"></use><use xlink:href="#SvgjsG10575" transform="translate(0, 388.8) scale(1.8)" fill="rgba(222, 224, 251, 1)"></use><use xlink:href="#SvgjsG10579" transform="translate(43.2, 0) scale(1.8)" fill="rgba(222, 224, 251, 1)"></use><use xlink:href="#SvgjsG10579" transform="translate(43.2, 43.2) scale(1.8)" fill="rgba(222, 224, 251, 1)"></use><use xlink:href="#SvgjsG10576" transform="translate(43.2, 86.4) scale(1.8)" fill="rgba(222, 224, 251, 1)"></use><use xlink:href="#SvgjsG10580" transform="translate(43.2, 129.60000000000002) scale(1.8)" fill="rgba(222, 224, 251, 1)"></use><use xlink:href="#SvgjsG10580" transform="translate(43.2, 172.8) scale(1.8)" fill="rgba(222, 224, 251, 1)"></use><use xlink:href="#SvgjsG10579" transform="translate(43.2, 216) scale(1.8)" fill="rgba(222, 224, 251, 1)"></use><use xlink:href="#SvgjsG10576" transform="translate(43.2, 259.20000000000005) scale(1.8)" fill="rgba(222, 224, 251, 1)"></use><use xlink:href="#SvgjsG10581" transform="translate(43.2, 302.40000000000003) scale(1.8)" fill="rgba(222, 224, 251, 1)"></use><use xlink:href="#SvgjsG10581" transform="translate(43.2, 345.6) scale(1.8)" fill="rgba(222, 224, 251, 1)"></use><use xlink:href="#SvgjsG10574" transform="translate(43.2, 388.8) scale(1.8)" fill="rgba(222, 224, 251, 1)"></use><use xlink:href="#SvgjsG10576" transform="translate(86.4, 0) scale(1.8)" fill="rgba(222, 224, 251, 1)"></use><use xlink:href="#SvgjsG10581" transform="translate(86.4, 43.2) scale(1.8)" fill="rgba(222, 224, 251, 1)"></use><use xlink:href="#SvgjsG10575" transform="translate(86.4, 86.4) scale(1.8)" fill="rgba(222, 224, 251, 1)"></use><use xlink:href="#SvgjsG10581" transform="translate(86.4, 129.60000000000002) scale(1.8)" fill="rgba(222, 224, 251, 1)"></use><use xlink:href="#SvgjsG10576" transform="translate(86.4, 172.8) scale(1.8)" fill="rgba(222, 224, 251, 1)"></use><use xlink:href="#SvgjsG10579" transform="translate(86.4, 216) scale(1.8)" fill="rgba(222, 224, 251, 1)"></use><use xlink:href="#SvgjsG10576" transform="translate(86.4, 259.20000000000005) scale(1.8)" fill="rgba(222, 224, 251, 1)"></use><use xlink:href="#SvgjsG10575" transform="translate(86.4, 302.40000000000003) scale(1.8)" fill="rgba(222, 224, 251, 1)"></use><use xlink:href="#SvgjsG10575" transform="translate(86.4, 345.6) scale(1.8)" fill="rgba(222, 224, 251, 1)"></use><use xlink:href="#SvgjsG10576" transform="translate(86.4, 388.8) scale(1.8)" fill="rgba(222, 224, 251, 1)"></use><use xlink:href="#SvgjsG10576" transform="translate(129.60000000000002, 0) scale(1.8)" fill="rgba(222, 224, 251, 1)"></use><use xlink:href="#SvgjsG10577" transform="translate(129.60000000000002, 43.2) scale(1.8)" fill="rgba(222, 224, 251, 1)"></use><use xlink:href="#SvgjsG10580" transform="translate(129.60000000000002, 86.4) scale(1.8)" fill="rgba(222, 224, 251, 1)"></use><use xlink:href="#SvgjsG10579" transform="translate(129.60000000000002, 129.60000000000002) scale(1.8)" fill="rgba(222, 224, 251, 1)"></use><use xlink:href="#SvgjsG10577" transform="translate(129.60000000000002, 172.8) scale(1.8)" fill="rgba(222, 224, 251, 1)"></use><use xlink:href="#SvgjsG10577" transform="translate(129.60000000000002, 216) scale(1.8)" fill="rgba(222, 224, 251, 1)"></use><use xlink:href="#SvgjsG10575" transform="translate(129.60000000000002, 259.20000000000005) scale(1.8)" fill="rgba(222, 224, 251, 1)"></use><use xlink:href="#SvgjsG10580" transform="translate(129.60000000000002, 302.40000000000003) scale(1.8)" fill="rgba(222, 224, 251, 1)"></use><use xlink:href="#SvgjsG10578" transform="translate(129.60000000000002, 345.6) scale(1.8)" fill="rgba(222, 224, 251, 1)"></use><use xlink:href="#SvgjsG10576" transform="translate(129.60000000000002, 388.8) scale(1.8)" fill="rgba(222, 224, 251, 1)"></use><use xlink:href="#SvgjsG10580" transform="translate(172.8, 0) scale(1.8)" fill="rgba(222, 224, 251, 1)"></use><use xlink:href="#SvgjsG10581" transform="translate(172.8, 43.2) scale(1.8)" fill="rgba(222, 224, 251, 1)"></use><use xlink:href="#SvgjsG10574" transform="translate(172.8, 86.4) scale(1.8)" fill="rgba(222, 224, 251, 1)"></use><use xlink:href="#SvgjsG10577" transform="translate(172.8, 129.60000000000002) scale(1.8)" fill="rgba(222, 224, 251, 1)"></use><use xlink:href="#SvgjsG10575" transform="translate(172.8, 172.8) scale(1.8)" fill="rgba(222, 224, 251, 1)"></use><use xlink:href="#SvgjsG10581" transform="translate(172.8, 216) scale(1.8)" fill="rgba(222, 224, 251, 1)"></use><use xlink:href="#SvgjsG10577" transform="translate(172.8, 259.20000000000005) scale(1.8)" fill="rgba(222, 224, 251, 1)"></use><use xlink:href="#SvgjsG10580" transform="translate(172.8, 302.40000000000003) scale(1.8)" fill="rgba(222, 224, 251, 1)"></use><use xlink:href="#SvgjsG10574" transform="translate(172.8, 345.6) scale(1.8)" fill="rgba(222, 224, 251, 1)"></use><use xlink:href="#SvgjsG10574" transform="translate(172.8, 388.8) scale(1.8)" fill="rgba(222, 224, 251, 1)"></use><use xlink:href="#SvgjsG10575" transform="translate(216, 0) scale(1.8)" fill="rgba(222, 224, 251, 1)"></use><use xlink:href="#SvgjsG10576" transform="translate(216, 43.2) scale(1.8)" fill="rgba(222, 224, 251, 1)"></use><use xlink:href="#SvgjsG10581" transform="translate(216, 86.4) scale(1.8)" fill="rgba(222, 224, 251, 1)"></use><use xlink:href="#SvgjsG10578" transform="translate(216, 129.60000000000002) scale(1.8)" fill="rgba(222, 224, 251, 1)"></use><use xlink:href="#SvgjsG10578" transform="translate(216, 172.8) scale(1.8)" fill="rgba(222, 224, 251, 1)"></use><use xlink:href="#SvgjsG10578" transform="translate(216, 216) scale(1.8)" fill="rgba(222, 224, 251, 1)"></use><use xlink:href="#SvgjsG10575" transform="translate(216, 259.20000000000005) scale(1.8)" fill="rgba(222, 224, 251, 1)"></use><use xlink:href="#SvgjsG10575" transform="translate(216, 302.40000000000003) scale(1.8)" fill="rgba(222, 224, 251, 1)"></use><use xlink:href="#SvgjsG10580" transform="translate(216, 345.6) scale(1.8)" fill="rgba(222, 224, 251, 1)"></use><use xlink:href="#SvgjsG10576" transform="translate(216, 388.8) scale(1.8)" fill="rgba(222, 224, 251, 1)"></use><use xlink:href="#SvgjsG10574" transform="translate(259.20000000000005, 0) scale(1.8)" fill="rgba(222, 224, 251, 1)"></use><use xlink:href="#SvgjsG10574" transform="translate(259.20000000000005, 43.2) scale(1.8)" fill="rgba(222, 224, 251, 1)"></use><use xlink:href="#SvgjsG10581" transform="translate(259.20000000000005, 86.4) scale(1.8)" fill="rgba(222, 224, 251, 1)"></use><use xlink:href="#SvgjsG10577" transform="translate(259.20000000000005, 129.60000000000002) scale(1.8)" fill="rgba(222, 224, 251, 1)"></use><use xlink:href="#SvgjsG10577" transform="translate(259.20000000000005, 172.8) scale(1.8)" fill="rgba(222, 224, 251, 1)"></use><use xlink:href="#SvgjsG10574" transform="translate(259.20000000000005, 216) scale(1.8)" fill="rgba(222, 224, 251, 1)"></use><use xlink:href="#SvgjsG10576" transform="translate(259.20000000000005, 259.20000000000005) scale(1.8)" fill="rgba(222, 224, 251, 1)"></use><use xlink:href="#SvgjsG10576" transform="translate(259.20000000000005, 302.40000000000003) scale(1.8)" fill="rgba(222, 224, 251, 1)"></use><use xlink:href="#SvgjsG10578" transform="translate(259.20000000000005, 345.6) scale(1.8)" fill="rgba(222, 224, 251, 1)"></use><use xlink:href="#SvgjsG10579" transform="translate(259.20000000000005, 388.8) scale(1.8)" fill="rgba(222, 224, 251, 1)"></use><use xlink:href="#SvgjsG10576" transform="translate(302.40000000000003, 0) scale(1.8)" fill="rgba(222, 224, 251, 1)"></use><use xlink:href="#SvgjsG10576" transform="translate(302.40000000000003, 43.2) scale(1.8)" fill="rgba(222, 224, 251, 1)"></use><use xlink:href="#SvgjsG10575" transform="translate(302.40000000000003, 86.4) scale(1.8)" fill="rgba(222, 224, 251, 1)"></use><use xlink:href="#SvgjsG10577" transform="translate(302.40000000000003, 129.60000000000002) scale(1.8)" fill="rgba(222, 224, 251, 1)"></use><use xlink:href="#SvgjsG10578" transform="translate(302.40000000000003, 172.8) scale(1.8)" fill="rgba(222, 224, 251, 1)"></use><use xlink:href="#SvgjsG10574" transform="translate(302.40000000000003, 216) scale(1.8)" fill="rgba(222, 224, 251, 1)"></use><use xlink:href="#SvgjsG10578" transform="translate(302.40000000000003, 259.20000000000005) scale(1.8)" fill="rgba(222, 224, 251, 1)"></use><use xlink:href="#SvgjsG10579" transform="translate(302.40000000000003, 302.40000000000003) scale(1.8)" fill="rgba(222, 224, 251, 1)"></use><use xlink:href="#SvgjsG10575" transform="translate(302.40000000000003, 345.6) scale(1.8)" fill="rgba(222, 224, 251, 1)"></use><use xlink:href="#SvgjsG10581" transform="translate(302.40000000000003, 388.8) scale(1.8)" fill="rgba(222, 224, 251, 1)"></use><use xlink:href="#SvgjsG10581" transform="translate(345.6, 0) scale(1.8)" fill="rgba(222, 224, 251, 1)"></use><use xlink:href="#SvgjsG10575" transform="translate(345.6, 43.2) scale(1.8)" fill="rgba(222, 224, 251, 1)"></use><use xlink:href="#SvgjsG10577" transform="translate(345.6, 86.4) scale(1.8)" fill="rgba(222, 224, 251, 1)"></use><use xlink:href="#SvgjsG10581" transform="translate(345.6, 129.60000000000002) scale(1.8)" fill="rgba(222, 224, 251, 1)"></use><use xlink:href="#SvgjsG10574" transform="translate(345.6, 172.8) scale(1.8)" fill="rgba(222, 224, 251, 1)"></use><use xlink:href="#SvgjsG10574" transform="translate(345.6, 216) scale(1.8)" fill="rgba(222, 224, 251, 1)"></use><use xlink:href="#SvgjsG10576" transform="translate(345.6, 259.20000000000005) scale(1.8)" fill="rgba(222, 224, 251, 1)"></use><use xlink:href="#SvgjsG10581" transform="translate(345.6, 302.40000000000003) scale(1.8)" fill="rgba(222, 224, 251, 1)"></use><use xlink:href="#SvgjsG10581" transform="translate(345.6, 345.6) scale(1.8)" fill="rgba(222, 224, 251, 1)"></use><use xlink:href="#SvgjsG10575" transform="translate(345.6, 388.8) scale(1.8)" fill="rgba(222, 224, 251, 1)"></use><use xlink:href="#SvgjsG10581" transform="translate(388.8, 0) scale(1.8)" fill="rgba(222, 224, 251, 1)"></use><use xlink:href="#SvgjsG10576" transform="translate(388.8, 43.2) scale(1.8)" fill="rgba(222, 224, 251, 1)"></use><use xlink:href="#SvgjsG10577" transform="translate(388.8, 86.4) scale(1.8)" fill="rgba(222, 224, 251, 1)"></use><use xlink:href="#SvgjsG10579" transform="translate(388.8, 129.60000000000002) scale(1.8)" fill="rgba(222, 224, 251, 1)"></use><use xlink:href="#SvgjsG10578" transform="translate(388.8, 172.8) scale(1.8)" fill="rgba(222, 224, 251, 1)"></use><use xlink:href="#SvgjsG10576" transform="translate(388.8, 216) scale(1.8)" fill="rgba(222, 224, 251, 1)"></use><use xlink:href="#SvgjsG10574" transform="translate(388.8, 259.20000000000005) scale(1.8)" fill="rgba(222, 224, 251, 1)"></use><use xlink:href="#SvgjsG10580" transform="translate(388.8, 302.40000000000003) scale(1.8)" fill="rgba(222, 224, 251, 1)"></use><use xlink:href="#SvgjsG10581" transform="translate(388.8, 345.6) scale(1.8)" fill="rgba(222, 224, 251, 1)"></use><use xlink:href="#SvgjsG10575" transform="translate(388.8, 388.8) scale(1.8)" fill="rgba(222, 224, 251, 1)"></use></g></defs></svg>